<svg width="60" height="60" viewBox="0 0 60 60" xmlns="http://www.w3.org/2000/svg">
  <defs>
    <pattern id="popcorn-pattern" x="0" y="0" width="60" height="60" patternUnits="userSpaceOnUse">
      <path d="M15 20c0-2.21 1.79-4 4-4s4 1.79 4 4-1.79 4-4 4-4-1.79-4-4zm20 10c0-2.21 1.79-4 4-4s4 1.79 4 4-1.79 4-4 4-4-1.79-4-4zm-25 15c0-2.21 1.79-4 4-4s4 1.79 4 4-1.79 4-4 4-4-1.79-4-4zm35-5c0-2.21 1.79-4 4-4s4 1.79 4 4-1.79 4-4 4-4-1.79-4-4z" fill="#FDE68A" fill-opacity="0.2"/>
    </pattern>
  </defs>
  <rect width="60" height="60" fill="url(#popcorn-pattern)"/>
</svg>